<svg width="211" height="251" viewBox="0 0 211 251" fill="none" xmlns="http://www.w3.org/2000/svg">
<path d="M147 28C158.375 28 168 37.582 168 48.9063V251L84 202.219L0 251V48.9063C0 37.582 9.1875 28 21 28H147ZM147 214.85V51.5195C147 50.2129 145.688 48.9063 144.375 48.9063H23.625C21.875 48.9063 21 50.2129 21 51.5195V214.85L84 178.264L147 214.85Z" fill="black"/>
<circle cx="148.941" cy="62.0588" r="54.5588" fill="black" stroke="#B6D902" stroke-width="15"/>
<path d="M177.417 56C178.708 56 180 57.5 180 59V65C180 66.6875 178.708 68 177.417 68H120.583C119.13 68 118 66.6875 118 65V59C118 57.5 119.13 56 120.583 56H177.417Z" fill="#B6D902"/>
<path d="M156 90.4167C156 91.7083 154.5 93 153 93L147 93C145.312 93 144 91.7083 144 90.4167L144 33.5833C144 32.1302 145.312 31 147 31L153 31C154.5 31 156 32.1302 156 33.5833L156 90.4167Z" fill="#B6D902"/>
</svg>
