<svg width="12" height="11" viewBox="0 0 12 11" fill="none" xmlns="http://www.w3.org/2000/svg">
<path d="M6.36719 10.6094C6.27344 10.7266 6.08594 10.7266 5.96875 10.6094L1.07031 5.71094C0.953125 5.59375 0.953125 5.42969 1.07031 5.3125L5.96875 0.414062C6.08594 0.296875 6.27344 0.296875 6.36719 0.414062L6.83594 0.859375C6.95312 0.976562 6.95312 1.16406 6.83594 1.25781L3.20312 4.89062H11.2188C11.3594 4.89062 11.5 5.03125 11.5 5.17188V5.82812C11.5 5.99219 11.3594 6.10938 11.2188 6.10938H3.20312L6.83594 9.76562C6.95312 9.85938 6.95312 10.0469 6.83594 10.1641L6.36719 10.6094Z" fill="white"/>
</svg>
