<svg width="15" height="16" viewBox="0 0 15 16" fill="none" xmlns="http://www.w3.org/2000/svg">
<path d="M7.23828 0.419922C7.37109 0.253906 7.63672 0.253906 7.80273 0.419922L14.7422 7.35938C14.9082 7.52539 14.9082 7.75781 14.7422 7.92383L7.80273 14.8633C7.63672 15.0293 7.37109 15.0293 7.23828 14.8633L6.57422 14.2324C6.4082 14.0664 6.4082 13.8008 6.57422 13.668L11.7207 8.48828H0.398438C0.166016 8.48828 0 8.32227 0 8.08984V7.16016C0 6.96094 0.166016 6.76172 0.398438 6.76172H11.7207L6.57422 1.61523C6.4082 1.48242 6.4082 1.2168 6.57422 1.05078L7.23828 0.419922Z" fill="#00193F"/>
</svg>
