<svg width="19" height="21" viewBox="0 0 19 21" fill="none" xmlns="http://www.w3.org/2000/svg">
<path d="M2.52951 20.3962C2.00332 20.3962 1.55794 20.2139 1.19336 19.8493C0.828776 19.4847 0.646484 19.0393 0.646484 18.5132V4.57091C0.646484 4.04473 0.828776 3.59935 1.19336 3.23477C1.55794 2.87018 2.00332 2.68789 2.52951 2.68789H3.97182V0.484375H5.57435V2.68789H13.467V0.484375H15.0294V2.68789H16.4717C16.9979 2.68789 17.4433 2.87018 17.8079 3.23477C18.1725 3.59935 18.3548 4.04473 18.3548 4.57091V18.5132C18.3548 19.0393 18.1725 19.4847 17.8079 19.8493C17.4433 20.2139 16.9979 20.3962 16.4717 20.3962H2.52951ZM2.52951 18.8337H16.4717C16.5519 18.8337 16.6253 18.8003 16.6921 18.7335C16.7589 18.6668 16.7923 18.5933 16.7923 18.5132V8.73758H2.20896V18.5132C2.20896 18.5933 2.24234 18.6668 2.30911 18.7335C2.3759 18.8003 2.44937 18.8337 2.52951 18.8337ZM2.20896 7.17511H16.7923V4.57091C16.7923 4.49077 16.7589 4.41731 16.6921 4.35052C16.6253 4.28375 16.5519 4.25037 16.4717 4.25037H2.52951C2.44937 4.25037 2.3759 4.28375 2.30911 4.35052C2.24234 4.41731 2.20896 4.49077 2.20896 4.57091V7.17511ZM9.50062 12.6638C9.24556 12.6638 9.02821 12.574 8.84859 12.3944C8.66898 12.2148 8.57917 11.9974 8.57917 11.7424C8.57917 11.4873 8.66898 11.27 8.84859 11.0903C9.02821 10.9107 9.24556 10.8209 9.50062 10.8209C9.75569 10.8209 9.97304 10.9107 10.1527 11.0903C10.3323 11.27 10.4221 11.4873 10.4221 11.7424C10.4221 11.9974 10.3323 12.2148 10.1527 12.3944C9.97304 12.574 9.75569 12.6638 9.50062 12.6638ZM5.33396 12.6638C5.07889 12.6638 4.86155 12.574 4.68193 12.3944C4.50231 12.2148 4.4125 11.9974 4.4125 11.7424C4.4125 11.4873 4.50231 11.27 4.68193 11.0903C4.86155 10.9107 5.07889 10.8209 5.33396 10.8209C5.58903 10.8209 5.80637 10.9107 5.98599 11.0903C6.16561 11.27 6.25542 11.4873 6.25542 11.7424C6.25542 11.9974 6.16561 12.2148 5.98599 12.3944C5.80637 12.574 5.58903 12.6638 5.33396 12.6638ZM13.6673 12.6638C13.4122 12.6638 13.1949 12.574 13.0153 12.3944C12.8356 12.2148 12.7458 11.9974 12.7458 11.7424C12.7458 11.4873 12.8356 11.27 13.0153 11.0903C13.1949 10.9107 13.4122 10.8209 13.6673 10.8209C13.9224 10.8209 14.1397 10.9107 14.3193 11.0903C14.4989 11.27 14.5887 11.4873 14.5887 11.7424C14.5887 11.9974 14.4989 12.2148 14.3193 12.3944C14.1397 12.574 13.9224 12.6638 13.6673 12.6638ZM9.50062 16.7504C9.24556 16.7504 9.02821 16.6606 8.84859 16.4809C8.66898 16.3013 8.57917 16.084 8.57917 15.8289C8.57917 15.5738 8.66898 15.3565 8.84859 15.1769C9.02821 14.9972 9.24556 14.9074 9.50062 14.9074C9.75569 14.9074 9.97304 14.9972 10.1527 15.1769C10.3323 15.3565 10.4221 15.5738 10.4221 15.8289C10.4221 16.084 10.3323 16.3013 10.1527 16.4809C9.97304 16.6606 9.75569 16.7504 9.50062 16.7504ZM5.33396 16.7504C5.07889 16.7504 4.86155 16.6606 4.68193 16.4809C4.50231 16.3013 4.4125 16.084 4.4125 15.8289C4.4125 15.5738 4.50231 15.3565 4.68193 15.1769C4.86155 14.9972 5.07889 14.9074 5.33396 14.9074C5.58903 14.9074 5.80637 14.9972 5.98599 15.1769C6.16561 15.3565 6.25542 15.5738 6.25542 15.8289C6.25542 16.084 6.16561 16.3013 5.98599 16.4809C5.80637 16.6606 5.58903 16.7504 5.33396 16.7504ZM13.6673 16.7504C13.4122 16.7504 13.1949 16.6606 13.0153 16.4809C12.8356 16.3013 12.7458 16.084 12.7458 15.8289C12.7458 15.5738 12.8356 15.3565 13.0153 15.1769C13.1949 14.9972 13.4122 14.9074 13.6673 14.9074C13.9224 14.9074 14.1397 14.9972 14.3193 15.1769C14.4989 15.3565 14.5887 15.5738 14.5887 15.8289C14.5887 16.084 14.4989 16.3013 14.3193 16.4809C14.1397 16.6606 13.9224 16.7504 13.6673 16.7504Z" fill="#964C66"/>
</svg>
