<svg width="25" height="18" viewBox="0 0 25 18" fill="none" xmlns="http://www.w3.org/2000/svg">
<path d="M12.471 13.9108C13.8728 13.9108 15.0644 13.4202 16.0457 12.4389C17.0269 11.4576 17.5176 10.266 17.5176 8.86417C17.5176 7.46233 17.0269 6.27077 16.0457 5.28948C15.0644 4.30819 13.8728 3.81754 12.471 3.81754C11.0691 3.81754 9.87756 4.30819 8.89627 5.28948C7.91498 6.27077 7.42434 7.46233 7.42434 8.86417C7.42434 10.266 7.91498 11.4576 8.89627 12.4389C9.87756 13.4202 11.0691 13.9108 12.471 13.9108ZM12.471 11.8921C11.6299 11.8921 10.9149 11.5978 10.3261 11.009C9.73738 10.4202 9.44299 9.70528 9.44299 8.86417C9.44299 8.02307 9.73738 7.30813 10.3261 6.71935C10.9149 6.13058 11.6299 5.83619 12.471 5.83619C13.3121 5.83619 14.027 6.13058 14.6158 6.71935C15.2046 7.30813 15.4989 8.02307 15.4989 8.86417C15.4989 9.70528 15.2046 10.4202 14.6158 11.009C14.027 11.5978 13.3121 11.8921 12.471 11.8921ZM12.471 17.2752C9.74205 17.2752 7.25612 16.5136 5.01317 14.9902C2.77023 13.4669 1.14409 11.4249 0.134766 8.86417C1.14409 6.30347 2.77023 4.26146 5.01317 2.73813C7.25612 1.21479 9.74205 0.453125 12.471 0.453125C15.1999 0.453125 17.6858 1.21479 19.9288 2.73813C22.1717 4.26146 23.7978 6.30347 24.8072 8.86417C23.7978 11.4249 22.1717 13.4669 19.9288 14.9902C17.6858 16.5136 15.1999 17.2752 12.471 17.2752ZM12.471 15.0323C14.5831 15.0323 16.5223 14.4762 18.2886 13.3641C20.0549 12.252 21.4054 10.752 22.3399 8.86417C21.4054 6.97636 20.0549 5.47639 18.2886 4.36426C16.5223 3.25213 14.5831 2.69607 12.471 2.69607C10.3589 2.69607 8.41965 3.25213 6.65333 4.36426C4.88701 5.47639 3.53657 6.97636 2.60201 8.86417C3.53657 10.752 4.88701 12.252 6.65333 13.3641C8.41965 14.4762 10.3589 15.0323 12.471 15.0323Z" fill="#F0E5E9"/>
</svg>
