<svg width="66" height="66" viewBox="0 0 66 66" fill="none" xmlns="http://www.w3.org/2000/svg">
<rect width="66" height="66" rx="33" fill="#6A0025"/>
<path d="M53.9227 49.7673C53.955 49.8102 53.978 49.8598 53.9901 49.9125C54.0022 49.9653 54.0032 50.0201 53.993 50.0733C53.9828 50.1264 53.9616 50.1768 53.9309 50.2209C53.9002 50.2651 53.8606 50.302 53.8148 50.3293C53.7264 50.3908 53.6185 50.4157 53.5129 50.3989C53.4073 50.3821 53.3118 50.325 53.2458 50.239C53.2458 50.239 50.9109 46.8165 49.204 46.1441C48.7429 45.9434 48.5173 46.1441 47.9483 46.6359C47.0751 47.4388 45.7409 48.6432 42.219 48.3822C42.167 48.381 42.1158 48.369 42.0685 48.3469C42.0213 48.3247 41.9789 48.293 41.944 48.2535C41.9091 48.2141 41.8824 48.1678 41.8656 48.1174C41.8488 48.0671 41.8422 48.0137 41.8462 47.9607C41.8538 47.8471 41.904 47.7409 41.9862 47.6642C42.0685 47.5876 42.1765 47.5463 42.2877 47.5492C45.4564 47.78 46.5748 46.7664 47.4087 46.0036C47.9973 45.4717 48.5467 44.9999 49.5081 45.3612C51.4701 46.1441 53.8148 49.6167 53.9227 49.7673ZM29.289 34.1706C28.4416 33.9852 27.5708 33.9378 26.7089 34.0301C26.4736 34.0426 26.2379 34.0426 26.0026 34.0301C25.8946 34.0296 25.7904 34.0706 25.7105 34.1449C25.6306 34.2192 25.5808 34.3215 25.571 34.4315C25.5628 34.5418 25.5973 34.6509 25.667 34.7354C25.7367 34.8199 25.8361 34.8729 25.9438 34.8832C26.2182 34.9007 26.4934 34.9007 26.7678 34.8832C26.7767 34.8884 26.7869 34.8912 26.7972 34.8912C26.8076 34.8912 26.8177 34.8884 26.8266 34.8832C26.8353 35.11 26.8957 35.3316 27.003 35.5302C27.1104 35.7289 27.2616 35.8991 27.4447 36.0273C27.9762 36.3641 28.5754 36.5734 29.1973 36.6395C29.8191 36.7055 30.4475 36.6266 31.0353 36.4087C31.2844 36.348 31.5146 36.2243 31.7049 36.0489C31.8951 35.8736 32.0393 35.6522 32.1242 35.4051C32.1358 35.3524 32.1371 35.2978 32.1281 35.2446C32.1191 35.1913 32.1 35.1404 32.0717 35.0947C32.0435 35.0491 32.0068 35.0096 31.9636 34.9784C31.9204 34.9473 31.8717 34.9251 31.8201 34.9133C31.7686 34.9014 31.7153 34.9 31.6632 34.9093C31.6112 34.9185 31.5614 34.9381 31.5168 34.967C31.4721 34.9959 31.4335 35.0335 31.4031 35.0777C31.3726 35.1218 31.351 35.1717 31.3394 35.2244C31.2773 35.3363 31.1927 35.4334 31.0912 35.5096C30.9898 35.5857 30.8738 35.639 30.7508 35.666C30.2938 35.8355 29.8064 35.9018 29.3221 35.8602C28.8377 35.8186 28.368 35.6702 27.945 35.4251C27.8557 35.3644 27.7805 35.2844 27.7246 35.1908C27.6686 35.0972 27.6334 34.9922 27.6213 34.8832C28.1121 34.9076 28.6007 34.9679 29.0831 35.0638C29.323 35.1093 29.5654 35.1395 29.809 35.1542C30.0754 35.1286 30.3384 35.0747 30.5938 34.9936C31.1944 34.8274 31.8169 34.7596 32.4382 34.7928C32.5332 34.8419 32.6433 34.8504 32.7444 34.8165C32.8456 34.7827 32.9294 34.7092 32.9777 34.6122C33.0059 34.5651 33.0238 34.5122 33.0301 34.4574C33.0363 34.4025 33.0309 34.3469 33.0141 34.2944C32.9973 34.2419 32.9695 34.1938 32.9328 34.1534C32.896 34.1129 32.8511 34.0811 32.8011 34.0602C32.02 33.8755 31.2037 33.9207 30.4467 34.1906C30.1622 34.2609 29.8777 34.3011 29.7894 34.3312C29.6047 34.3123 29.4212 34.2821 29.24 34.2408M29.24 33.0063C28.6119 32.7765 27.9398 32.7009 27.2779 32.7855C27.1745 32.8029 27.0818 32.8608 27.0195 32.947C26.9572 33.0333 26.9302 33.141 26.9444 33.2472C26.9538 33.302 26.9738 33.3544 27.0032 33.4012C27.0325 33.4481 27.0706 33.4886 27.1153 33.5203C27.1599 33.552 27.2103 33.5744 27.2635 33.5861C27.3167 33.5978 27.3716 33.5986 27.4251 33.5884C27.9736 33.5535 28.5234 33.6285 29.0438 33.8092C29.0959 33.8276 29.1512 33.8344 29.2061 33.8294C29.261 33.8244 29.3142 33.8076 29.3623 33.7802C29.4105 33.7527 29.4524 33.7152 29.4854 33.6701C29.5184 33.6249 29.5418 33.5732 29.5539 33.5182C29.5812 33.4118 29.5667 33.2987 29.5135 33.203C29.4604 33.1074 29.3727 33.0368 29.2694 33.0063M30.6625 33.6989C31.1039 33.5592 31.5641 33.4914 32.0262 33.4981C32.1321 33.4982 32.234 33.4566 32.3108 33.3819C32.3875 33.3071 32.4331 33.205 32.4382 33.0967C32.4408 33.0418 32.4326 32.9869 32.4142 32.9353C32.3958 32.8837 32.3675 32.8365 32.3309 32.7962C32.2944 32.756 32.2503 32.7237 32.2013 32.7012C32.1523 32.6786 32.0994 32.6664 32.0457 32.6651C31.4807 32.6639 30.9187 32.7484 30.378 32.916C30.28 32.9603 30.2016 33.0404 30.1581 33.1406C30.1146 33.2407 30.109 33.3539 30.1425 33.458C30.1599 33.5097 30.1875 33.5572 30.2234 33.5976C30.2594 33.6381 30.3031 33.6706 30.3517 33.6931C30.4004 33.7157 30.4531 33.7278 30.5065 33.7288C30.56 33.7298 30.6131 33.7196 30.6625 33.6989ZM36.3133 33.0465C36.9468 31.1431 36.8593 29.0658 36.068 27.2253C36.0487 27.1754 36.0197 27.13 35.9829 27.0917C35.946 27.0534 35.9021 27.0231 35.8536 27.0025C35.8052 26.9819 35.7531 26.9715 35.7006 26.9718C35.6482 26.9722 35.5962 26.9833 35.548 27.0045C35.449 27.0527 35.3716 27.1375 35.3316 27.2419C35.2915 27.3463 35.2917 27.4624 35.3322 27.5666C36.0166 29.2122 36.0933 31.0562 35.548 32.7554C34.2334 36.1377 33.1837 38.2253 32.3695 38.8676C31.3885 39.6806 28.0431 40.4133 25.0019 38.9178C24.9431 38.8677 24.8548 38.8275 24.7469 38.7573C24.4114 38.5543 24.0475 38.4053 23.6678 38.3156C23.6162 38.3024 23.5625 38.2999 23.5099 38.3085C23.4574 38.3171 23.4071 38.3366 23.3621 38.3657C23.3172 38.3948 23.2785 38.4329 23.2484 38.4778C23.2183 38.5227 23.1974 38.5734 23.1871 38.6268C23.1679 38.7354 23.1882 38.8474 23.2442 38.9417C23.3003 39.036 23.3881 39.106 23.4912 39.1386C23.7954 39.2029 24.085 39.3255 24.3447 39.4999L24.6978 39.6806C28.2393 41.4269 31.8789 40.4133 32.9483 39.52C34.0176 38.6268 34.9594 36.6998 36.3623 33.0465M33.5173 27.145C33.7081 27.1372 33.8883 27.0527 34.0186 26.9099C34.149 26.7672 34.2192 26.5776 34.2138 26.3823C34.2169 26.222 34.1725 26.0645 34.0863 25.9306C34.4202 26.01 34.7481 26.114 35.0673 26.2418C35.1123 26.2687 35.1623 26.2855 35.2141 26.2909C35.266 26.2963 35.3183 26.2902 35.3677 26.273C35.417 26.2559 35.4621 26.2281 35.5 26.1915C35.5379 26.155 35.5676 26.1105 35.5872 26.0611C35.6138 26.0136 35.6304 25.9609 35.6358 25.9065C35.6412 25.852 35.6354 25.797 35.6188 25.745C35.6022 25.6929 35.575 25.6451 35.5392 25.6045C35.5033 25.5638 35.4595 25.5313 35.4107 25.5091C34.571 25.0846 33.6106 24.9814 32.703 25.218C32.4312 25.3264 32.183 25.4886 31.9726 25.6952C31.7621 25.9019 31.5936 26.149 31.4767 26.4224C31.4362 26.5266 31.436 26.6427 31.4761 26.7471C31.5161 26.8515 31.5936 26.9363 31.6926 26.9845C31.7415 27.0059 31.7941 27.0171 31.8473 27.0176C31.9005 27.0181 31.9532 27.0077 32.0025 26.9872C32.0518 26.9667 32.0966 26.9363 32.1343 26.898C32.172 26.8596 32.2019 26.8139 32.2223 26.7637C32.3376 26.4569 32.5619 26.206 32.8502 26.0611C32.81 26.1631 32.79 26.2723 32.7913 26.3823C32.7858 26.5743 32.8533 26.761 32.9795 26.9033C33.1057 27.0455 33.2809 27.1321 33.4682 27.145M46.1137 45.7226C46.5124 45.4109 46.7793 44.9547 46.8593 44.4479C46.8593 44.2472 46.8593 44.0866 46.8593 43.926C46.8934 43.5733 46.8167 43.2187 46.6402 42.9136C46.4638 42.6086 46.1969 42.3691 45.8783 42.2299C45.6625 42.0894 45.5447 42.0291 45.5447 41.8485C45.5632 41.6842 45.6097 41.5246 45.6821 41.3768C45.7673 41.125 45.8105 40.8603 45.8096 40.5939C45.8174 40.2993 45.7569 40.0069 45.633 39.7408C45.2385 39.044 44.6419 38.4898 43.926 38.1551C44.5143 37.2612 44.8534 36.2203 44.907 35.1441C44.9164 34.977 44.9164 34.8094 44.907 34.6423C44.7936 33.3804 44.1978 32.2153 43.2491 31.4005C42.7684 30.9288 42.5231 30.6879 42.5231 30.166C42.5231 29.875 42.5232 29.5137 42.6115 29.1624C42.6115 28.5803 42.739 27.9279 42.739 27.2655C42.8088 26.6166 42.7147 25.9603 42.4657 25.3593C42.2166 24.7583 41.8209 24.2328 41.3165 23.833C41.6018 23.2491 41.7591 22.6086 41.7775 21.9562C41.7887 21.5859 41.7148 21.2181 41.5617 20.8823C41.3863 20.5417 41.1383 20.2458 40.836 20.0165C40.5338 19.7872 40.185 19.6303 39.8155 19.5575C39.6588 19.1243 39.5856 18.6642 39.5997 18.2025C39.5997 17.9516 39.5997 17.6907 39.5114 17.3996C39.4292 17.0659 39.2745 16.7553 39.0588 16.4912C38.8431 16.2271 38.5719 16.0161 38.2655 15.8741C37.8958 15.6955 37.4847 15.626 37.0784 15.6734C36.8626 13.9471 36.2936 13.6661 35.4401 13.5657C34.8594 13.5217 34.3148 13.261 33.9097 12.833C33.7139 12.585 33.4632 12.3883 33.1783 12.2592C32.8934 12.13 32.5825 12.0721 32.2714 12.0903C31.9001 12.1384 31.555 12.3114 31.2904 12.5821C30.9096 12.2293 30.4203 12.0234 29.9071 12C29.6241 12.0117 29.3469 12.0859 29.0946 12.2175C28.8422 12.3492 28.6208 12.5352 28.4454 12.7628C28.3783 12.8442 28.3415 12.9473 28.3415 13.0538C28.3415 13.1603 28.3783 13.2634 28.4454 13.3449C28.532 13.4176 28.6428 13.453 28.7545 13.4437C28.8662 13.4343 28.9699 13.3809 29.0438 13.2947C29.1352 13.1607 29.255 13.0495 29.3943 12.9696C29.5336 12.8896 29.6888 12.843 29.8482 12.833C30.2853 12.9032 30.6863 13.1225 30.9862 13.4553C31.0248 13.5062 31.0763 13.5454 31.1351 13.5684C31.194 13.5914 31.2578 13.5974 31.3198 13.5858C31.3868 13.5872 31.4529 13.5691 31.5102 13.5335C31.5675 13.498 31.6138 13.4465 31.6435 13.385C31.7144 13.2634 31.8096 13.1585 31.9229 13.0772C32.0361 12.9959 32.1649 12.9401 32.3008 12.9133C32.5853 12.9133 32.8894 13.0538 33.2818 13.4151C33.8066 13.9664 34.498 14.3201 35.2439 14.4188C35.5971 14.4188 35.7639 14.5091 35.8816 14.6597C36.1477 15.1541 36.2829 15.7111 36.274 16.2755C36.2751 16.3409 36.2941 16.4047 36.3288 16.4597C36.3634 16.5147 36.4124 16.5587 36.4702 16.5867C36.5287 16.6252 36.5968 16.6456 36.6664 16.6456C36.736 16.6456 36.8041 16.6252 36.8626 16.5867C37.014 16.5058 37.1823 16.4635 37.3531 16.4635C37.524 16.4635 37.6923 16.5058 37.8437 16.5867C38.0356 16.6665 38.207 16.7904 38.3448 16.9487C38.4825 17.1071 38.583 17.2957 38.6383 17.5C38.6383 17.7509 38.6971 17.9717 38.7167 18.2226C38.7377 18.8123 38.8816 19.3905 39.1386 19.9188C39.1626 19.9781 39.2016 20.0299 39.2516 20.0687C39.3016 20.1075 39.3608 20.1319 39.4231 20.1396C39.7058 20.1759 39.9766 20.278 40.2147 20.438C40.4528 20.5981 40.6518 20.8119 40.7965 21.0629C40.9171 21.4925 40.9427 21.9442 40.8714 22.3851C40.8002 22.826 40.6338 23.2452 40.3845 23.6122C40.3624 23.6662 40.351 23.7242 40.351 23.7828C40.351 23.8414 40.3624 23.8994 40.3845 23.9535C40.397 24.0093 40.4236 24.0608 40.4614 24.103C40.4992 24.1452 40.5471 24.1767 40.6004 24.1943C42.1798 24.937 41.9541 27.1049 41.7775 28.8713C41.7775 29.2728 41.6991 29.6742 41.6696 29.9954C41.6795 30.3675 41.7731 30.7322 41.9433 31.0613C42.1134 31.3903 42.3555 31.6747 42.6507 31.8923C43.0601 32.228 43.3976 32.6462 43.6424 33.121C43.8871 33.5958 44.0337 34.1171 44.0732 34.6523C44.0955 35.8565 43.7148 37.0322 42.9941 37.9844C42.9541 38.0381 42.9255 38.0998 42.9103 38.1655C42.8951 38.2312 42.8935 38.2995 42.9058 38.3658C42.9564 38.4878 43.0514 38.585 43.1706 38.6368C43.8828 38.8854 44.4915 39.3736 44.8973 40.0218C44.9711 40.1783 45.0095 40.3499 45.0095 40.5237C45.0095 40.6974 44.9711 40.869 44.8973 41.0255C44.4558 42.1897 44.8972 42.5711 45.4662 42.8822C46.0352 43.1934 46.1432 43.2837 46.0058 44.2773C45.9911 44.4244 45.9447 44.5664 45.8701 44.693C45.7955 44.8197 45.6945 44.9279 45.5742 45.01C44.4362 45.8831 41.5421 45.7025 40.5219 45.5519C40.4556 45.5476 40.3893 45.5589 40.3281 45.585C40.2668 45.6111 40.2123 45.6513 40.1687 45.7025C40.1233 45.7488 40.0911 45.807 40.0755 45.8706C40.06 45.9343 40.0616 46.0011 40.0804 46.0638C40.1387 46.2337 40.1512 46.4166 40.1167 46.5931C40.0822 46.7697 40.0019 46.9336 39.8842 47.0675C39.6245 47.2766 39.322 47.4231 38.9993 47.4961C38.6766 47.5691 38.3419 47.5666 38.0202 47.489C37.9502 47.4742 37.8777 47.4775 37.8092 47.4985C37.7407 47.5196 37.6783 47.5577 37.6278 47.6094C37.5832 47.6605 37.5518 47.7221 37.5364 47.7887C37.521 47.8553 37.5221 47.9247 37.5395 47.9908C37.6965 48.6833 37.5395 49.155 37.1961 49.3758C37.0005 49.4848 36.7813 49.5418 36.5585 49.5418C36.3357 49.5418 36.1165 49.4848 35.9208 49.3758C35.8025 49.243 35.7212 49.0801 35.6854 48.9041C35.6598 48.7415 35.5989 48.5867 35.5072 48.4513C35.4156 48.3158 35.2954 48.2031 35.1556 48.1213C35.0151 48.0574 34.863 48.0243 34.7093 48.0243C34.5555 48.0243 34.4034 48.0574 34.2629 48.1213C33.6448 48.3722 33.3799 48.302 33.2818 48.2317C33.202 48.1588 33.1388 48.0689 33.0964 47.9683C33.054 47.8678 33.0336 47.759 33.0366 47.6496C33.031 47.5659 32.9979 47.4867 32.9427 47.4247C32.8875 47.3628 32.8134 47.3217 32.7325 47.3083C32.6638 47.3083 31.9574 47.1076 31.8495 45.8932C31.9002 44.8337 32.3588 43.8378 33.1249 43.1231L33.3211 42.8722L33.3799 42.7819C33.7206 42.4468 33.9408 42.0039 34.0049 41.5249C34.069 41.0458 33.9733 40.5587 33.7331 40.1423C33.6716 40.051 33.5773 39.9882 33.4708 39.9676C33.3642 39.9469 33.2541 39.97 33.1641 40.0319C33.1041 40.0623 33.0537 40.1097 33.019 40.1683C32.9842 40.2269 32.9665 40.2945 32.9679 40.3631C32.9631 40.4428 32.9876 40.5216 33.0366 40.5839C33.155 40.7734 33.2226 40.9915 33.2328 41.2162C33.1803 41.5943 33.012 41.9457 32.7521 42.2198L32.6638 42.3302L32.5069 42.5109C31.6647 43.3494 31.1399 44.4658 31.0255 45.6623C31.0255 45.7527 31.0255 45.8229 31.0255 45.9132C31.0185 46.3423 31.1322 46.7644 31.3531 47.1291C31.574 47.4939 31.8928 47.7861 32.2714 47.9707C32.2959 48.1601 32.3592 48.3421 32.4573 48.5047C32.5553 48.6673 32.6859 48.8068 32.8404 48.9142C33.1117 49.0349 33.4062 49.0912 33.7018 49.0791C33.9974 49.0669 34.2864 48.9865 34.5474 48.8439C34.6254 48.8319 34.7048 48.8319 34.7828 48.8439C34.8278 48.9384 34.8671 49.0356 34.9006 49.135C34.9762 49.4355 35.1247 49.7116 35.3322 49.9379C35.6589 50.173 36.0434 50.3099 36.4422 50.3329C36.841 50.356 37.2381 50.2643 37.5886 50.0684C37.8489 49.9116 38.0618 49.6843 38.2038 49.4116C38.3457 49.1388 38.4113 48.8312 38.393 48.5227C38.4022 48.4629 38.4022 48.4019 38.393 48.3421C38.769 48.3758 39.1476 48.33 39.5054 48.2074C39.8633 48.0848 40.1926 47.8881 40.4728 47.6295C40.7739 47.3129 40.9397 46.8869 40.9339 46.4452C42.0719 46.5556 44.7599 46.6861 46.0745 45.6623M25.3551 25.0173C24.8164 24.9546 24.2715 25.0496 23.7835 25.2913C23.2955 25.5329 22.8846 25.9112 22.5984 26.3823C22.554 26.4838 22.5497 26.5989 22.5863 26.7036C22.6228 26.8083 22.6975 26.8945 22.7946 26.9443C22.8433 26.9695 22.8966 26.9843 22.951 26.9878C23.0055 26.9913 23.06 26.9834 23.1114 26.9646C23.1628 26.9459 23.21 26.9166 23.2499 26.8786C23.2899 26.8406 23.3219 26.7946 23.344 26.7436C23.5093 26.4261 23.781 26.1802 24.1092 26.0511C24.0986 26.1243 24.0986 26.1987 24.1092 26.2719C24.1039 26.4725 24.1761 26.6672 24.3102 26.8137C24.4442 26.9603 24.6293 27.0469 24.8254 27.0547C25.0223 27.0469 25.2084 26.9606 25.344 26.8144C25.4796 26.6681 25.554 26.4735 25.5513 26.2719C25.546 26.125 25.5091 25.9811 25.4434 25.8503C25.7464 25.8588 26.0401 25.9586 26.2879 26.1371C26.5357 26.3157 26.7265 26.565 26.8365 26.854C26.8762 26.9583 26.9525 27.0438 27.0503 27.0939C27.1482 27.1439 27.2608 27.155 27.3663 27.125C27.4682 27.0843 27.5517 27.0063 27.6007 26.9062C27.6496 26.806 27.6605 26.6909 27.6311 26.583C27.596 26.5072 27.5567 26.4334 27.5134 26.3622C27.7628 25.9643 27.8707 25.4906 27.8189 25.0208C27.7671 24.551 27.5588 24.1139 27.2289 23.7828C26.2479 22.6487 24.3447 23.1204 22.9908 23.4516C22.939 23.4655 22.8903 23.4899 22.8478 23.5234C22.8053 23.5568 22.7697 23.5986 22.7432 23.6462C22.7167 23.6939 22.6998 23.7466 22.6934 23.801C22.6871 23.8555 22.6915 23.9107 22.7064 23.9635C22.7169 24.0171 22.7377 24.068 22.7676 24.1133C22.7976 24.1586 22.836 24.1974 22.8808 24.2273C22.9255 24.2572 22.9757 24.2776 23.0283 24.2875C23.0808 24.2973 23.1349 24.2964 23.1871 24.2846C24.3447 23.9635 25.9437 23.5821 26.6402 24.3649C26.8044 24.5216 26.9226 24.722 26.9815 24.9437C27.0405 25.1653 27.0378 25.3994 26.9738 25.6195C26.5082 25.269 25.9521 25.0665 25.3747 25.0374M34.204 49.8476C34.1521 49.8577 34.103 49.8791 34.0598 49.9102C34.0166 49.9412 33.9803 49.9814 33.9534 50.0279C33.9265 50.0744 33.9096 50.1262 33.9038 50.1799C33.8979 50.2336 33.9033 50.2879 33.9195 50.3393C34.2433 51.7444 34.204 52.3467 33.743 52.5273C32.8404 52.9789 30.221 53.2198 27.0621 53.1797C25.1739 53.2392 23.2872 53.0195 21.4604 52.5273C22.6166 49.1774 23.4254 45.7125 23.8737 42.1897L23.9817 41.2965C24.8103 41.6081 25.6594 41.8596 26.5225 42.0492C26.5853 42.3595 26.615 42.6758 26.6108 42.9927C26.5805 43.96 26.4986 44.9249 26.3656 45.8831C26.1618 47.4778 26.0439 49.0827 26.0124 50.6906C26.0124 51.072 26.0124 51.4333 26.0615 51.7946C26.0599 51.8495 26.0697 51.9041 26.0901 51.9549C26.1105 52.0056 26.1412 52.0514 26.18 52.0893C26.2189 52.1271 26.2651 52.1562 26.3157 52.1746C26.3662 52.193 26.42 52.2003 26.4735 52.1961C26.581 52.1909 26.6824 52.1428 26.7557 52.0621C26.829 51.9815 26.8686 51.8747 26.8659 51.7645C26.8052 49.8352 26.9103 47.9041 27.1799 45.9936C27.3957 44.0465 27.5723 42.5209 27.1799 41.5374C27.157 41.4688 27.1168 41.4076 27.0634 41.36C27.01 41.3125 26.9453 41.2802 26.8757 41.2664C25.8114 41.0352 24.7653 40.7232 23.7463 40.333C23.6899 40.2985 23.6255 40.2803 23.5599 40.2803C23.4942 40.2803 23.4298 40.2985 23.3735 40.333C23.3207 40.3672 23.2758 40.4128 23.2419 40.4665C23.208 40.5202 23.186 40.5808 23.1772 40.6441C23.1772 40.6441 23.0399 42.0593 23.0399 42.0793C22.5644 45.5999 21.7461 49.0629 20.5971 52.4169C20.5837 52.4763 20.5837 52.5381 20.5971 52.5975C20.596 52.6888 20.6158 52.779 20.655 52.8609C20.6942 52.9429 20.7516 53.0142 20.8227 53.0693C21.6272 53.812 25.7868 53.9625 27.0523 53.9926C28.3179 54.0227 32.5461 53.9926 34.1059 53.27C35.3322 52.6678 34.9104 51.082 34.6945 50.1185C34.6809 50.0655 34.6571 50.0157 34.6244 49.9722C34.5917 49.9287 34.5509 49.8923 34.5043 49.8652C34.4577 49.8381 34.4062 49.8208 34.353 49.8143C34.2997 49.8078 34.2457 49.8123 34.1942 49.8275M32.4578 41.156C32.4166 41.0569 32.339 40.9783 32.2418 40.937C32.1446 40.8957 32.0355 40.895 31.9378 40.9352C30.8054 41.3315 29.6122 41.5151 28.4159 41.4771C28.3092 41.4771 28.2069 41.5205 28.1315 41.5977C28.0561 41.6748 28.0137 41.7795 28.0137 41.8886C28.0137 41.9978 28.0561 42.1024 28.1315 42.1796C28.2069 42.2568 28.3092 42.3001 28.4159 42.3001C29.7153 42.3463 31.012 42.149 32.242 41.718C32.341 41.6699 32.4184 41.585 32.4585 41.4806C32.4986 41.3762 32.4983 41.2602 32.4578 41.156ZM31.8005 23.4115C31.44 23.5977 31.1288 23.87 30.8931 24.2055C30.6574 24.5409 30.5043 24.9296 30.4467 25.3385C30.4311 26.5977 30.7175 27.8417 31.2806 28.9616C31.6239 29.7947 31.9771 30.6678 31.7613 30.9689C31.5454 31.27 31.2806 31.4005 30.6037 31.26C29.9973 31.0953 29.3543 31.1448 28.7789 31.4005C28.5678 31.486 28.3327 31.486 28.1216 31.4005C28.0191 31.3269 27.9487 31.2153 27.9254 31.0894C27.9746 31.0479 28.0142 30.9957 28.0413 30.9367C28.0685 30.8777 28.0825 30.8133 28.0824 30.7481C28.0824 30.6363 28.039 30.5291 27.9617 30.4501C27.8844 30.371 27.7797 30.3266 27.6704 30.3266C27.6162 30.323 27.5619 30.333 27.5123 30.3557C27.4627 30.3785 27.4193 30.4133 27.3858 30.4571C27.305 30.5215 27.2392 30.6036 27.1934 30.6974C27.1476 30.7911 27.1228 30.8942 27.121 30.999C27.1153 31.2009 27.1557 31.4013 27.2391 31.5843C27.3226 31.7673 27.4468 31.9277 27.6017 32.0529C27.8157 32.1991 28.0637 32.2845 28.3206 32.3004C28.5774 32.3162 28.8338 32.262 29.0634 32.1432C29.4905 31.9487 29.9731 31.9237 30.4173 32.073C30.772 32.209 31.162 32.2143 31.5201 32.0879C31.8782 31.9615 32.1821 31.7113 32.3793 31.3804C32.5037 31.1725 32.5652 30.9315 32.5559 30.6879C32.4764 29.963 32.2774 29.2571 31.9672 28.6003C31.5255 27.6971 31.2558 26.7162 31.1726 25.7098V25.3987C31.218 25.1182 31.3244 24.8516 31.484 24.6188C31.6436 24.386 31.8524 24.1929 32.0948 24.0538C33.2524 23.5018 35.0379 24.3449 35.0379 24.3449C35.1114 24.3849 35.1952 24.4006 35.2778 24.3898C35.3604 24.379 35.4377 24.3423 35.499 24.2846C35.5606 24.2301 35.604 24.1573 35.6233 24.0764C35.6427 23.9955 35.6369 23.9104 35.6069 23.833C35.2152 22.7839 34.9772 21.6814 34.9006 20.5611C34.8955 20.4528 34.8499 20.3507 34.7731 20.2759C34.6964 20.2012 34.5945 20.1595 34.4885 20.1597C34.3826 20.1695 34.284 20.219 34.2116 20.2987C34.1392 20.3783 34.0981 20.4825 34.0961 20.5912C34.1513 21.5107 34.3126 22.4203 34.5768 23.3011C33.6749 22.9396 32.673 22.9396 31.7711 23.3011M22.52 20.8622C23.0265 20.8924 23.532 20.7882 23.9875 20.5596C24.443 20.3309 24.833 19.9858 25.1197 19.5575C25.6179 20.1011 26.2822 20.4551 27.0032 20.5611C27.7124 20.5119 28.3745 20.1805 28.8476 19.6377C29.3895 20.1392 30.0806 20.4397 30.8096 20.4909C31.16 20.4754 31.502 20.3767 31.8085 20.2025C32.115 20.0283 32.3777 19.7834 32.5755 19.4872C32.8157 19.7012 33.079 19.8864 33.3603 20.0392C33.4057 20.0676 33.4563 20.0863 33.5089 20.0941C33.5615 20.1018 33.6152 20.0986 33.6666 20.0845C33.7179 20.0704 33.766 20.0458 33.8078 20.0121C33.8496 19.9785 33.8843 19.9365 33.9097 19.8887C33.963 19.7942 33.9775 19.6819 33.9499 19.5765C33.9223 19.4711 33.8549 19.3812 33.7625 19.3266C33.4169 19.1721 33.1259 18.9129 32.9287 18.5839C32.8914 18.5194 32.8383 18.466 32.7746 18.4289C32.711 18.3918 32.639 18.3723 32.5657 18.3723C32.4925 18.3723 32.4204 18.3918 32.3568 18.4289C32.2932 18.466 32.2401 18.5194 32.2027 18.5839C31.7907 19.3266 31.3296 19.6578 30.8096 19.6578C30.1512 19.5753 29.5393 19.2676 29.0732 18.7846C29.0311 18.7411 28.9805 18.707 28.9247 18.6846C28.869 18.6621 28.8093 18.6518 28.7495 18.6542C28.6889 18.6595 28.6302 18.6784 28.5776 18.7097C28.5251 18.7409 28.4799 18.7836 28.4454 18.8348C28.2728 19.0742 28.0556 19.2764 27.8065 19.4297C27.5573 19.5829 27.2811 19.6843 26.9935 19.7281C26.3503 19.5807 25.7776 19.2079 25.3747 18.6743C25.3367 18.6236 25.2876 18.5827 25.2314 18.5549C25.1752 18.527 25.1134 18.5129 25.051 18.5137C24.9853 18.5144 24.9208 18.5312 24.8628 18.5626C24.8048 18.5941 24.755 18.6392 24.7175 18.6943C24.4624 19.0958 23.7364 20.0392 22.9025 20.0894C22.409 17.8021 21.7532 15.5547 20.9405 13.3649H21.1563C21.4591 13.3455 21.7618 13.4031 22.0375 13.5328C22.3131 13.6624 22.553 13.8599 22.7358 14.1077C22.7793 14.171 22.8387 14.2212 22.9078 14.253C22.9768 14.2848 23.053 14.297 23.1282 14.2883C23.2012 14.2676 23.2688 14.2308 23.3264 14.1805C23.384 14.1302 23.4302 14.0677 23.4617 13.9972C23.5893 13.5456 24.6194 12.9936 25.6887 13.0538C26.1362 13.1009 26.565 13.2626 26.9353 13.524C27.3057 13.7854 27.6057 14.1379 27.8077 14.5492C27.8579 14.647 27.9436 14.7206 28.0463 14.7544C28.149 14.7882 28.2606 14.7794 28.3571 14.7299C28.4524 14.6732 28.5223 14.5804 28.5517 14.4716C28.581 14.3628 28.5675 14.2465 28.5141 14.1478C28.244 13.6099 27.8449 13.151 27.3542 12.814C26.8634 12.477 26.2972 12.2729 25.7083 12.2208C24.7185 12.1828 23.7535 12.5431 23.0202 13.2245C22.7514 12.9892 22.4394 12.8112 22.1025 12.7009C21.7656 12.5906 21.4105 12.5502 21.0582 12.5821C20.806 12.611 20.5567 12.6613 20.3126 12.7326C20.2678 12.7422 20.2247 12.7591 20.1851 12.7828C20.1314 12.819 20.0872 12.8682 20.0564 12.9259C20.0256 12.9837 20.0092 13.0483 20.0085 13.114C19.9972 13.1737 19.9972 13.235 20.0085 13.2947C20.0085 13.2947 20.0085 13.2947 20.0576 13.2947C20.9681 15.6462 21.69 18.0696 22.2159 20.541C22.2384 20.6201 22.2811 20.6917 22.3398 20.7481C22.3985 20.8046 22.4708 20.844 22.5494 20.8622M31.2609 51.7746C31.2821 51.8227 31.3124 51.8661 31.35 51.9023C31.3876 51.9385 31.4319 51.9667 31.4802 51.9853C31.5285 52.0039 31.5799 52.0127 31.6315 52.011C31.6831 52.0092 31.7339 51.9971 31.7809 51.9753C31.8785 51.9311 31.9554 51.85 31.9957 51.7489C32.0359 51.6478 32.0363 51.5347 31.9967 51.4333C31.8169 50.7429 31.7343 50.0299 31.7514 49.3156V49.1149C31.7502 49.0608 31.7385 49.0076 31.7171 48.9582C31.6957 48.9087 31.665 48.8641 31.6267 48.8268C31.5885 48.7895 31.5434 48.7603 31.4941 48.7409C31.4448 48.7214 31.3922 48.7121 31.3394 48.7134C31.2319 48.716 31.1295 48.7616 31.0543 48.8404C30.9792 48.9192 30.9371 49.0249 30.9372 49.135V49.3156C30.889 50.1943 30.9953 51.0748 31.2511 51.9151" fill="#F0E5E9"/>
</svg>
