<svg width="17" height="13" viewBox="0 0 17 13" fill="none" xmlns="http://www.w3.org/2000/svg">
<path d="M15.4062 0.25C16.2695 0.25 17 0.980469 17 1.84375V11.4062C17 12.3027 16.2695 13 15.4062 13H1.59375C0.697266 13 0 12.3027 0 11.4062V1.84375C0 0.980469 0.697266 0.25 1.59375 0.25H15.4062ZM15.4062 1.84375H1.59375V3.20508C2.32422 3.83594 3.51953 4.76562 6.04297 6.75781C6.60742 7.18945 7.70312 8.25195 8.5 8.21875C9.26367 8.25195 10.3594 7.18945 10.9238 6.75781C13.4473 4.76562 14.6426 3.83594 15.4062 3.20508V1.84375ZM1.59375 11.4062H15.4062V5.26367C14.6426 5.86133 13.5469 6.72461 11.9199 8.01953C11.1562 8.58398 9.89453 9.8457 8.5 9.8125C7.07227 9.8457 5.77734 8.58398 5.04688 8.01953C3.41992 6.72461 2.32422 5.86133 1.59375 5.26367V11.4062Z" fill="black"/>
</svg>
