<svg width="13" height="18" viewBox="0 0 13 18" fill="none" xmlns="http://www.w3.org/2000/svg">
<path d="M5.71094 16.793C0.863281 9.82031 0 9.08984 0 6.5C0 2.98047 2.82227 0.125 6.375 0.125C9.89453 0.125 12.75 2.98047 12.75 6.5C12.75 9.08984 11.8535 9.82031 7.00586 16.793C6.70703 17.2578 6.00977 17.2578 5.71094 16.793ZM6.375 9.15625C7.83594 9.15625 9.03125 7.99414 9.03125 6.5C9.03125 5.03906 7.83594 3.84375 6.375 3.84375C4.88086 3.84375 3.71875 5.03906 3.71875 6.5C3.71875 7.99414 4.88086 9.15625 6.375 9.15625Z" fill="black"/>
</svg>
