<svg width="42" height="50" viewBox="0 0 42 50" fill="none" xmlns="http://www.w3.org/2000/svg">
<path d="M28.875 6C31.1094 6 33 7.89062 33 10.125V50L16.5 40.375L0 50V10.125C0 7.89062 1.80469 6 4.125 6H28.875ZM28.875 42.8672V10.6406C28.875 10.3828 28.6172 10.125 28.3594 10.125H4.64062C4.29688 10.125 4.125 10.3828 4.125 10.6406V42.8672L16.5 35.6484L28.875 42.8672Z" fill="#D9D5D5"/>
<path d="M42 12.5C42 19.4036 36.4036 25 29.5 25C22.5964 25 17 19.4036 17 12.5C17 5.59644 22.5964 0 29.5 0C36.4036 0 42 5.59644 42 12.5Z" fill="#D9D5D5"/>
<path fill-rule="evenodd" clip-rule="evenodd" d="M29.5 22.5C35.0228 22.5 39.5 18.0228 39.5 12.5C39.5 6.97715 35.0228 2.5 29.5 2.5C23.9772 2.5 19.5 6.97715 19.5 12.5C19.5 18.0228 23.9772 22.5 29.5 22.5ZM29.5 25C36.4036 25 42 19.4036 42 12.5C42 5.59644 36.4036 0 29.5 0C22.5964 0 17 5.59644 17 12.5C17 19.4036 22.5964 25 29.5 25Z" fill="#D9D5D5"/>
<path d="M36.4167 10.8333C36.7083 10.8333 37 11.125 37 11.4167V12.5833C37 12.9115 36.7083 13.1667 36.4167 13.1667H31.1667V18.4167C31.1667 18.7448 30.875 19 30.5833 19H29.4167C29.0885 19 28.8333 18.7448 28.8333 18.4167V13.1667H23.5833C23.2552 13.1667 23 12.9115 23 12.5833V11.4167C23 11.125 23.2552 10.8333 23.5833 10.8333H28.8333V5.58333C28.8333 5.29167 29.0885 5 29.4167 5H30.5833C30.875 5 31.1667 5.29167 31.1667 5.58333V10.8333H36.4167Z" fill="white"/>
</svg>
