<svg width="36" height="35" viewBox="0 0 36 35" fill="none" xmlns="http://www.w3.org/2000/svg">
<mask id="mask0_3_7197" style="mask-type:alpha" maskUnits="userSpaceOnUse" x="0" y="0" width="36" height="35">
<rect x="0.979492" y="0.738281" width="34.2615" height="34.2615" fill="#767676"/>
</mask>
<g mask="url(#mask0_3_7197)">
<path d="M13.824 18.5827H15.2515V15.7275H16.6791C17.0836 15.7275 17.4226 15.5907 17.6962 15.3171C17.9699 15.0435 18.1067 14.7044 18.1067 14.3V12.8724C18.1067 12.4679 17.9699 12.1289 17.6962 11.8553C17.4226 11.5817 17.0836 11.4448 16.6791 11.4448H13.824V18.5827ZM15.2515 14.3V12.8724H16.6791V14.3H15.2515ZM19.5342 18.5827H22.3894C22.7938 18.5827 23.1329 18.4459 23.4065 18.1722C23.6801 17.8986 23.8169 17.5596 23.8169 17.1551V12.8724C23.8169 12.4679 23.6801 12.1289 23.4065 11.8553C23.1329 11.5817 22.7938 11.4448 22.3894 11.4448H19.5342V18.5827ZM20.9618 17.1551V12.8724H22.3894V17.1551H20.9618ZM25.2445 18.5827H26.672V15.7275H28.0996V14.3H26.672V12.8724H28.0996V11.4448H25.2445V18.5827ZM12.3964 26.4342C11.6113 26.4342 10.9391 26.1547 10.38 25.5956C9.82087 25.0364 9.5413 24.3643 9.5413 23.5791V6.44838C9.5413 5.66323 9.82087 4.99108 10.38 4.43195C10.9391 3.87283 11.6113 3.59326 12.3964 3.59326H29.5272C30.3123 3.59326 30.9845 3.87283 31.5436 4.43195C32.1027 4.99108 32.3823 5.66323 32.3823 6.44838V23.5791C32.3823 24.3643 32.1027 25.0364 31.5436 25.5956C30.9845 26.1547 30.3123 26.4342 29.5272 26.4342H12.3964ZM12.3964 23.5791H29.5272V6.44838H12.3964V23.5791ZM6.68618 32.1445C5.90102 32.1445 5.22888 31.8649 4.66975 31.3058C4.11062 30.7467 3.83105 30.0745 3.83105 29.2894V9.30351H6.68618V29.2894H26.672V32.1445H6.68618Z" fill="#F0E5E9"/>
</g>
</svg>
