<svg width="31" height="30" viewBox="0 0 31 30" fill="none" xmlns="http://www.w3.org/2000/svg">
<path d="M28.5889 30L17.7389 19.5C16.8778 20.1667 15.8875 20.6944 14.7681 21.0833C13.6486 21.4722 12.4574 21.6667 11.1944 21.6667C8.06574 21.6667 5.41782 20.6181 3.25069 18.5208C1.08356 16.4236 0 13.8611 0 10.8333C0 7.80556 1.08356 5.24306 3.25069 3.14583C5.41782 1.04861 8.06574 0 11.1944 0C14.3231 0 16.9711 1.04861 19.1382 3.14583C21.3053 5.24306 22.3889 7.80556 22.3889 10.8333C22.3889 12.0556 22.188 13.2083 21.7861 14.2917C21.3843 15.375 20.8389 16.3333 20.15 17.1667L31 27.6667L28.5889 30ZM11.1944 18.3333C13.3472 18.3333 15.1771 17.6042 16.684 16.1458C18.191 14.6875 18.9444 12.9167 18.9444 10.8333C18.9444 8.75 18.191 6.97917 16.684 5.52083C15.1771 4.0625 13.3472 3.33333 11.1944 3.33333C9.04167 3.33333 7.21181 4.0625 5.70486 5.52083C4.19792 6.97917 3.44444 8.75 3.44444 10.8333C3.44444 12.9167 4.19792 14.6875 5.70486 16.1458C7.21181 17.6042 9.04167 18.3333 11.1944 18.3333Z" fill="#fff"/>
</svg>
