<svg width="23" height="16" viewBox="0 0 23 16" fill="none" xmlns="http://www.w3.org/2000/svg">
<path d="M11.5013 12.2259C12.6816 12.2259 13.6841 11.8128 14.5088 10.9866C15.3334 10.1604 15.7457 9.15708 15.7457 7.97677C15.7457 6.79648 15.3326 5.794 14.5064 4.96935C13.6802 4.1447 12.6769 3.73237 11.4966 3.73237C10.3163 3.73237 9.31382 4.14548 8.48917 4.97169C7.66451 5.79792 7.25219 6.8012 7.25219 7.98151C7.25219 9.16181 7.6653 10.1643 8.49151 10.9889C9.31774 11.8136 10.321 12.2259 11.5013 12.2259ZM11.499 10.7916C10.7177 10.7916 10.0536 10.5182 9.50677 9.97133C8.9599 9.42445 8.68646 8.76039 8.68646 7.97914C8.68646 7.19789 8.9599 6.53383 9.50677 5.98695C10.0536 5.44008 10.7177 5.16664 11.499 5.16664C12.2802 5.16664 12.9443 5.44008 13.4911 5.98695C14.038 6.53383 14.3115 7.19789 14.3115 7.97914C14.3115 8.76039 14.038 9.42445 13.4911 9.97133C12.9443 10.5182 12.2802 10.7916 11.499 10.7916ZM11.5004 15.2708C9.10496 15.2708 6.92233 14.6101 4.9525 13.2886C2.98269 11.9672 1.53238 10.1974 0.601562 7.97914C1.53238 5.76093 2.98222 3.9911 4.95109 2.66966C6.91995 1.34822 9.10209 0.6875 11.4975 0.6875C13.893 0.6875 16.0756 1.34822 18.0454 2.66966C20.0152 3.9911 21.4655 5.76093 22.3964 7.97914C21.4655 10.1974 20.0157 11.9672 18.0468 13.2886C16.078 14.6101 13.8958 15.2708 11.5004 15.2708ZM11.499 13.7083C13.4608 13.7083 15.262 13.1918 16.9026 12.1588C18.5432 11.1258 19.7976 9.73261 20.6656 7.97914C19.7976 6.22567 18.5432 4.83244 16.9026 3.79945C15.262 2.76647 13.4608 2.24997 11.499 2.24997C9.53715 2.24997 7.73594 2.76647 6.09531 3.79945C4.45469 4.83244 3.20035 6.22567 2.33229 7.97914C3.20035 9.73261 4.45469 11.1258 6.09531 12.1588C7.73594 13.1918 9.53715 13.7083 11.499 13.7083Z" fill="#964C66"/>
</svg>
